<?xml version="1.0" encoding="utf-8"?>
<!-- Generator: Adobe Illustrator 21.0.0, SVG Export Plug-In . SVG Version: 6.00 Build 0)  -->
<svg version="1.1" xmlns="http://www.w3.org/2000/svg" xmlns:xlink="http://www.w3.org/1999/xlink" x="0px" y="0px"
	 viewBox="0 0 448 416" style="enable-background:new 0 0 448 416;" xml:space="preserve">
<style type="text/css">
	.st0{fill:#F2F2F2;}
	.st1{fill:#333333;}
</style>
<g id="Lager_2">
	<rect x="103" y="44.5" class="st0" width="242.5" height="262.5"/>
</g>
<g id="Lager_1">
	<path class="st1" d="M200,0 M288,0c53,0,96,43,96,96v160c0,30.6-14.3,57.8-36.6,75.4l65.5,65.5C420,404,415,416,405,416h-39.7
		c-8.5,0-16.6-3.4-22.6-9.4L288,352H160l-54.6,54.6c-6,6-14.1,9.4-22.6,9.4H43c-10,0-15-12.1-7.9-19.1l65.5-65.5
		C78.3,313.8,64,286.6,64,256V96c0-53,43-96,96-96H288z M160,64c-17.7,0-32,14.3-32,32v32c0,17.7,14.3,32,32,32h128
		c17.7,0,32-14.3,32-32V96c0-17.7-14.3-32-32-32H160z M192,256c0-17.7-14.3-32-32-32s-32,14.3-32,32s14.3,32,32,32
		S192,273.7,192,256z M288,288c17.7,0,32-14.3,32-32s-14.3-32-32-32s-32,14.3-32,32S270.3,288,288,288z"/>
</g>
</svg>
